<?xml version="1.0" encoding="utf-8"?>
<!-- Generator: Adobe Illustrator 27.0.1, SVG Export Plug-In . SVG Version: 6.00 Build 0)  -->
<svg version="1.1" id="Layer_2_00000123439763062250206350000016813821008960624778_"
	 xmlns="http://www.w3.org/2000/svg" xmlns:xlink="http://www.w3.org/1999/xlink" x="0px" y="0px" viewBox="0 0 470 255"
	 style="enable-background:new 0 0 470 255;" xml:space="preserve">
<style type="text/css">
	.st0{fill:#D82E00;}
	.st1{fill:#FF5E00;}
	.st2{fill:#1800E7;}
</style>
<g>
	<g>
		<path class="st0" d="M389.5,40.9c-22.7,15.3-35.7,40.6-35.7,40.6c59.6-38.9,116.2-29,116.2-29C462.9,37,427.9,14.9,389.5,40.9z"/>
	</g>
	<path class="st1" d="M309.8,63.4c9.1,14.9-15.8,37.9-15.8,37.9c41.7-4.9,64-31.2,60.1-53.2c-3.7-20.9-28.3-36.1-73-36.1
		c-74.8,0-122.5,37.6-122.5,37.6C237.3,36.6,296.8,42.1,309.8,63.4z"/>
	<g>
		<g>
			<path class="st2" d="M174.4,110.6H0v45h54c1.7,0,3.1,1.4,3.1,3.1v84.4h60.2v-84.4c0-1.7,1.4-3.1,3.1-3.1h54V110.6z"/>
		</g>
		<g>
			<path class="st2" d="M250,176.4C250.1,176.4,250.1,176.4,250,176.4L250,176.4l37,66.6h5.1h17.5h5.7l37-66.7l0,0c0,0,0,0,0.1,0
				c0.6-0.8,1.4-1.4,2.5-1.4c1.6,0,3,1.3,3.1,2.9l0,0l0,0v1.3v63.8h57.5V110.6h-23.8H358h-16.8l0,0c-0.2,0-0.4,0-0.6,0
				c-1.6,0.1-3.1,0.9-4.2,2.2c-0.3,0.3-0.5,0.7-0.7,1l0,0L304,171.1h-0.1c-0.5,0.9-1.5,1.6-2.7,1.6s-2.1-0.7-2.7-1.6l0,0l-0.2-0.3
				l0,0l-31.6-57c-1-1.8-2.8-2.9-4.7-3.2c-0.1,0-0.1,0-0.2,0c-0.2,0-0.4,0-0.6,0l0,0h-16.9h-33.7h-23.8V243h57.5v-65l0,0l0,0
				c0-0.5,0.2-0.9,0.4-1.2c0.5-1,1.5-1.7,2.7-1.7C248.6,175.1,249.5,175.6,250,176.4z"/>
		</g>
	</g>
</g>
</svg>
